<?xml version="1.0" encoding="UTF-8" standalone="no"?>
<svg
        xmlns:dc="http://purl.org/dc/elements/1.1/"
        xmlns:cc="http://creativecommons.org/ns#"
        xmlns:rdf="http://www.w3.org/1999/02/22-rdf-syntax-ns#"
        xmlns:svg="http://www.w3.org/2000/svg"
        xmlns="http://www.w3.org/2000/svg"
        xmlns:sodipodi="http://sodipodi.sourceforge.net/DTD/sodipodi-0.dtd"
        xmlns:inkscape="http://www.inkscape.org/namespaces/inkscape"
        width="176pt"
        height="107pt"
        viewBox="0 0 176 107"
        version="1.1"
        id="svg2"
        inkscape:version="0.91 r13725"
        sodipodi:docname="logo.svg">
    <metadata
            id="metadata42">
        <rdf:RDF>
            <cc:Work
                    rdf:about="">
                <dc:format>image/svg+xml</dc:format>
                <dc:type
                        rdf:resource="http://purl.org/dc/dcmitype/StillImage"/>
            </cc:Work>
        </rdf:RDF>
    </metadata>
    <defs
            id="defs40"/>
    <sodipodi:namedview
            pagecolor="#ffffff"
            bordercolor="#666666"
            borderopacity="1"
            objecttolerance="10"
            gridtolerance="10"
            guidetolerance="10"
            inkscape:pageopacity="0"
            inkscape:pageshadow="2"
            inkscape:window-width="1366"
            inkscape:window-height="705"
            id="namedview38"
            showgrid="false"
            inkscape:zoom="2.4427325"
            inkscape:cx="24.146218"
            inkscape:cy="66.874999"
            inkscape:window-x="-8"
            inkscape:window-y="-8"
            inkscape:window-maximized="1"
            inkscape:current-layer="svg2"/>
    <path
            fill="#656754"
            d=" M 67.28 0.00 L 67.52 0.00 C 68.50 0.64 69.47 1.29 70.44 1.94 C 64.06 12.98 57.76 24.07 51.36 35.09 C 57.70 46.15 64.02 57.23 70.43 68.25 C 69.34 68.91 68.25 69.57 67.16 70.22 C 63.16 63.26 59.15 56.31 55.15 49.35 C 48.24 49.39 41.32 49.29 34.41 49.40 C 34.33 48.35 34.26 47.30 34.18 46.25 C 40.49 46.43 46.81 46.31 53.12 46.35 C 51.58 43.12 50.04 39.82 47.80 37.00 C 39.29 36.55 30.73 36.92 22.20 36.85 C 22.22 35.66 22.23 34.48 22.24 33.30 C 30.83 33.33 39.42 33.34 48.01 33.29 C 49.82 30.15 51.84 27.09 53.09 23.65 C 46.81 23.66 40.52 23.56 34.24 23.75 C 34.23 23.13 34.22 21.88 34.22 21.26 C 41.11 21.42 48.00 21.33 54.89 21.32 C 59.06 14.24 62.99 7.01 67.28 0.00 Z"
            id="path6"/>
    <path
            fill="#656754"
            d=" M 109.62 0.00 L 109.74 0.00 C 114.09 7.13 117.57 14.87 122.63 21.53 C 129.32 21.10 136.03 21.51 142.72 21.27 C 142.72 21.88 142.71 23.11 142.70 23.73 C 136.41 23.61 130.11 23.61 123.82 23.71 C 125.07 27.13 127.04 30.22 128.90 33.33 C 137.49 33.30 146.08 33.35 154.67 33.31 C 154.69 34.48 154.71 35.65 154.74 36.83 C 147.15 36.80 139.57 36.84 131.98 36.78 C 130.68 36.90 128.85 36.53 128.21 38.06 C 126.48 40.67 125.11 43.50 123.78 46.33 C 130.10 46.33 136.42 46.41 142.75 46.27 C 142.67 47.31 142.60 48.35 142.53 49.39 C 135.63 49.28 128.73 49.45 121.83 49.29 C 117.72 56.19 113.75 63.18 109.79 70.17 C 108.64 69.56 107.49 68.95 106.35 68.34 C 112.83 57.31 119.13 46.17 125.51 35.08 C 119.08 24.05 112.80 12.93 106.38 1.88 C 107.45 1.24 108.53 0.61 109.62 0.00 Z"
            id="path8"/>
    <path
            d="M 104.75391 27.939453 C 102.08086 27.88877 99.374219 28.087109 96.824219 28.162109 C 97.086719 38.737109 96.824609 49.324609 96.974609 59.912109 C 103.48711 59.712109 110.93789 61.100781 116.33789 56.488281 C 124.06289 50.775781 124.36289 38.088281 116.96289 31.988281 C 113.57227 28.800781 109.20898 28.023926 104.75391 27.939453 z M 103.42578 34.425781 C 106.46328 34.488281 109.83828 34.400391 112.30078 36.462891 C 116.70078 39.787891 117.18672 46.861719 113.19922 50.699219 C 110.71172 53.386719 106.87578 53.499219 103.48828 53.636719 C 103.37578 47.236719 103.46328 40.825781 103.42578 34.425781 z "
            id="path10"
            transform="scale(0.8,0.8)"
            style="fill:#656754;fill-opacity:1"/>
    <path
            fill="#656754"
            d=" M 66.72 85.79 C 68.69 83.51 71.90 83.59 74.65 83.49 C 74.66 84.50 74.69 86.53 74.70 87.55 C 72.36 87.37 69.29 87.34 68.56 90.19 C 69.40 92.10 72.07 90.75 73.64 91.22 C 73.61 92.21 73.56 94.18 73.53 95.16 C 71.94 95.18 70.36 95.23 68.77 95.29 C 68.84 98.87 68.85 102.46 68.80 106.04 C 67.81 106.02 65.85 105.98 64.87 105.96 C 64.79 102.44 64.83 98.93 64.85 95.41 C 62.52 95.59 62.57 93.15 63.20 91.57 C 65.73 90.66 64.75 87.31 66.72 85.79 Z"
            id="path14"/>
    <path
            fill="#656754"
            d=" M 76.21 85.08 C 77.54 85.13 78.87 85.19 80.20 85.25 C 80.15 87.26 80.14 89.27 80.16 91.28 C 82.11 91.24 84.06 91.21 86.01 91.17 C 86.05 92.51 86.09 93.86 86.14 95.20 C 84.14 95.20 82.15 95.19 80.15 95.18 C 80.40 97.56 79.26 100.85 81.77 102.36 C 83.14 102.91 84.67 102.63 86.11 102.76 C 86.11 103.57 86.11 105.18 86.11 105.98 C 83.32 105.77 79.67 106.91 77.82 104.10 C 75.69 101.80 76.45 98.51 76.16 95.68 C 74.04 95.30 74.32 93.18 74.08 91.58 C 77.58 91.41 75.94 87.34 76.21 85.08 Z"
            id="path16"/>
    <path
            fill="#656754"
            d=" M 115.21 85.13 C 116.53 85.12 117.86 85.11 119.19 85.11 C 119.19 87.29 119.19 89.47 119.17 91.66 C 122.87 89.60 127.84 92.04 128.75 96.12 C 129.12 99.40 128.89 102.72 128.90 106.02 C 127.93 106.00 125.99 105.97 125.01 105.96 C 124.84 102.96 125.04 99.94 124.82 96.94 C 124.21 94.23 119.95 94.30 119.33 96.98 C 119.01 99.97 119.24 102.98 119.18 105.99 C 117.86 105.99 116.53 105.99 115.21 106.01 C 115.23 99.05 115.23 92.09 115.21 85.13 Z"
            id="path18"/>
    <path
            fill="#656754"
            d=" M 150.37 85.22 C 151.68 85.16 152.99 85.09 154.30 85.03 C 154.33 87.09 154.36 89.16 154.42 91.22 C 156.40 91.21 158.38 91.22 160.35 91.26 C 160.32 92.24 160.26 94.22 160.22 95.20 C 158.25 95.20 156.28 95.20 154.31 95.20 C 154.58 97.56 153.50 100.73 155.85 102.32 C 157.23 102.93 158.82 102.61 160.29 102.77 C 160.28 103.59 160.25 105.23 160.23 106.04 C 157.67 105.75 154.39 106.91 152.48 104.62 C 149.95 102.34 150.43 98.70 150.47 95.65 C 148.30 95.38 148.38 93.44 148.33 91.71 C 151.72 91.33 150.13 87.53 150.37 85.22 Z"
            id="path20"/>
    <path
            d="M 25.279297 107.40234 C 23.235767 107.37151 21.172266 107.48438 19.212891 107.4375 C 19.150391 115.8 19.188281 124.16172 19.175781 132.51172 C 24.725781 131.82422 31.588281 134.41211 35.863281 129.66211 C 41.450781 124.53711 40.899219 114.61211 34.761719 110.16211 C 32.035156 107.9043 28.685181 107.45374 25.279297 107.40234 z M 24.4375 112.41211 C 26.9625 112.77461 29.838281 112.64961 31.863281 114.47461 C 35.288281 117.26211 35.475 122.91328 32.25 125.92578 C 30.2625 128.13828 27.099219 128.07422 24.386719 128.26172 C 24.411719 122.97422 24.35 117.69961 24.4375 112.41211 z "
            transform="scale(0.8,0.8)"
            id="path22"
            style="fill:#656754;fill-opacity:1"/>
    <path
            fill="#656754"
            d=" M 102.38 86.48 C 106.03 84.85 110.14 85.92 113.32 88.05 C 112.64 89.27 111.96 90.49 111.29 91.71 C 108.85 90.06 105.56 88.94 102.94 90.87 C 98.85 93.20 98.91 99.77 103.06 102.00 C 105.69 103.82 108.90 102.61 111.33 101.07 C 111.96 102.34 112.61 103.62 113.25 104.89 C 111.71 105.62 110.17 106.36 108.59 107.00 L 104.26 107.00 C 100.39 105.92 96.94 102.98 96.05 98.95 C 94.70 93.95 97.61 88.39 102.38 86.48 Z"
            id="path24"/>
    <path
            fill="#656754"
            d=" M 34.09 90.84 C 34.81 91.47 35.53 92.10 36.25 92.73 C 38.76 91.30 41.62 91.09 44.44 91.23 C 44.40 92.52 44.36 93.82 44.32 95.11 C 42.23 95.35 39.24 94.62 38.19 97.04 C 37.88 100.36 38.31 103.72 37.59 107.00 L 34.06 107.00 C 34.14 101.62 33.96 96.23 34.09 90.84 Z"
            id="path28"/>
    <path
            d="M 65.896484 113.36133 C 63.915558 113.29624 61.957031 113.84258 60.261719 115.27539 C 53.261719 120.33789 56.224219 133.225 65.261719 133.75 L 67.212891 133.75 C 69.087891 132.9875 70.8875 132.08711 72.6875 131.16211 C 73.4625 131.81211 75.025781 133.08711 75.800781 133.72461 C 76.163281 126.96211 76.049609 120.2 75.849609 113.4375 C 74.949609 114.3 74.036719 115.17578 73.136719 116.05078 C 71.027344 114.53906 68.44339 113.44502 65.896484 113.36133 z M 65.642578 118.28125 C 67.810486 118.15127 70.110937 119.56406 70.738281 121.73828 C 72.113281 125.13828 68.800391 129.56328 65.087891 128.61328 C 61.087891 127.82578 60.175 122.07578 62.9375 119.48828 C 63.699219 118.71875 64.657166 118.34033 65.642578 118.28125 z "
            transform="scale(0.8,0.8)"
            id="path30"
            style="fill:#656754;fill-opacity:1"/>
    <path
            d="M 172.79102 113.31445 C 171.29204 113.296 169.8043 113.67773 168.41211 114.66211 C 160.73711 118.98711 162.775 132.2125 171.625 133.75 L 173.63672 133.75 C 175.94922 133.4 177.98789 132.23672 180.02539 131.13672 L 183.17578 133.73828 C 183.36328 126.97578 183.25 120.21172 183.25 113.44922 L 180 115.80078 C 177.82031 114.48828 175.28931 113.34521 172.79102 113.31445 z M 173.36133 118.25781 C 175.65455 118.36916 177.9207 120.20742 178.21289 122.58789 C 179.06289 126.13789 175.07422 130 171.57422 128.375 C 168.04922 127.0375 167.63789 121.58711 170.40039 119.28711 C 171.27148 118.51367 172.31895 118.2072 173.36133 118.25781 z "
            transform="scale(0.8,0.8)"
            id="path32"
            style="fill:#656754;fill-opacity:1"/>
</svg>
