<?xml version="1.0" encoding="UTF-8" standalone="no"?>
<svg
        xmlns:dc="http://purl.org/dc/elements/1.1/"
        xmlns:cc="http://creativecommons.org/ns#"
        xmlns:rdf="http://www.w3.org/1999/02/22-rdf-syntax-ns#"
        xmlns:svg="http://www.w3.org/2000/svg"
        xmlns="http://www.w3.org/2000/svg"
        xmlns:sodipodi="http://sodipodi.sourceforge.net/DTD/sodipodi-0.dtd"
        xmlns:inkscape="http://www.inkscape.org/namespaces/inkscape"
        width="176pt"
        height="107pt"
        viewBox="0 0 176 107"
        version="1.1"
        id="svg3397"
        inkscape:version="0.91 r13725"
        sodipodi:docname="asd-gray.svg">
    <metadata
            id="metadata3437">
        <rdf:RDF>
            <cc:Work
                    rdf:about="">
                <dc:format>image/svg+xml</dc:format>
                <dc:type
                        rdf:resource="http://purl.org/dc/dcmitype/StillImage"/>
                <dc:title></dc:title>
            </cc:Work>
        </rdf:RDF>
    </metadata>
    <defs
            id="defs3435"/>
    <sodipodi:namedview
            pagecolor="#ffffff"
            bordercolor="#666666"
            borderopacity="1"
            objecttolerance="10"
            gridtolerance="10"
            guidetolerance="10"
            inkscape:pageopacity="0"
            inkscape:pageshadow="2"
            inkscape:window-width="1366"
            inkscape:window-height="705"
            id="namedview3433"
            showgrid="false"
            inkscape:zoom="1.7272727"
            inkscape:cx="77.359601"
            inkscape:cy="66.846651"
            inkscape:window-x="-8"
            inkscape:window-y="-8"
            inkscape:window-maximized="1"
            inkscape:current-layer="svg3397"/>
    <path
            d=" M 0.00 0.00 L 67.28 0.00 C 62.99 7.01 59.06 14.24 54.89 21.32 C 48.00 21.33 41.11 21.42 34.22 21.26 C 34.22 21.88 34.23 23.13 34.24 23.75 C 40.52 23.56 46.81 23.66 53.09 23.65 C 51.84 27.09 49.82 30.15 48.01 33.29 C 39.42 33.34 30.83 33.33 22.24 33.30 C 22.23 34.48 22.22 35.66 22.20 36.85 C 30.73 36.92 39.29 36.55 47.80 37.00 C 50.04 39.82 51.58 43.12 53.12 46.35 C 46.81 46.31 40.49 46.43 34.18 46.25 C 34.26 47.30 34.33 48.35 34.41 49.40 C 41.32 49.29 48.24 49.39 55.15 49.35 C 59.15 56.31 63.16 63.26 67.16 70.22 C 68.25 69.57 69.34 68.91 70.43 68.25 C 64.02 57.23 57.70 46.15 51.36 35.09 C 57.76 24.07 64.06 12.98 70.44 1.94 C 69.47 1.29 68.50 0.64 67.52 -0.00 L 109.62 0.00 C 108.53 0.61 107.45 1.24 106.38 1.88 C 112.80 12.93 119.08 24.05 125.51 35.08 C 119.13 46.17 112.83 57.31 106.35 68.34 C 107.49 68.95 108.64 69.56 109.79 70.17 C 113.75 63.18 117.72 56.19 121.83 49.29 C 128.73 49.45 135.63 49.28 142.53 49.39 C 142.60 48.35 142.67 47.31 142.75 46.27 C 136.42 46.41 130.10 46.33 123.78 46.33 C 125.11 43.50 126.48 40.67 128.21 38.06 C 128.85 36.53 130.68 36.90 131.98 36.78 C 139.57 36.84 147.15 36.80 154.74 36.83 C 154.71 35.65 154.69 34.48 154.67 33.31 C 146.08 33.35 137.49 33.30 128.90 33.33 C 127.04 30.22 125.07 27.13 123.82 23.71 C 130.11 23.61 136.41 23.61 142.70 23.73 C 142.71 23.11 142.72 21.88 142.72 21.27 C 136.03 21.51 129.32 21.10 122.63 21.53 C 117.57 14.87 114.09 7.13 109.74 0.00 L 176.00 0.00 L 176.00 107.00 L 138.91 107.00 C 140.76 106.72 142.39 105.79 144.02 104.91 C 144.65 105.43 145.91 106.47 146.54 106.99 C 146.69 101.58 146.60 96.17 146.60 90.76 C 145.95 91.23 144.65 92.17 144.00 92.64 C 141.21 90.96 137.70 89.63 134.73 91.73 C 128.59 95.19 130.22 105.77 137.30 107.00 L 108.59 107.00 C 110.17 106.36 111.71 105.62 113.25 104.89 C 112.61 103.62 111.96 102.34 111.33 101.07 C 108.90 102.61 105.69 103.82 103.06 102.00 C 98.91 99.77 98.85 93.20 102.94 90.87 C 105.56 88.94 108.85 90.06 111.29 91.71 C 111.96 90.49 112.64 89.27 113.32 88.05 C 110.14 85.92 106.03 84.85 102.38 86.48 C 97.61 88.39 94.70 93.95 96.05 98.95 C 96.94 102.98 100.39 105.92 104.26 107.00 L 53.77 107.00 C 55.27 106.39 56.71 105.67 58.15 104.93 C 58.77 105.45 60.02 106.47 60.64 106.98 C 60.93 101.57 60.84 96.16 60.68 90.75 C 59.96 91.44 59.23 92.14 58.51 92.84 C 55.51 90.69 51.31 89.60 48.21 92.22 C 42.61 96.27 44.98 106.58 52.21 107.00 L 37.59 107.00 C 38.31 103.72 37.88 100.36 38.19 97.04 C 39.24 94.62 42.23 95.35 44.32 95.11 C 44.36 93.82 44.40 92.52 44.44 91.23 C 41.62 91.09 38.76 91.30 36.25 92.73 C 35.53 92.10 34.81 91.47 34.09 90.84 C 33.96 96.23 34.14 101.62 34.06 107.00 L 0.00 107.00 L 0.00 0.00 Z"
            id="path3399"
            fill="#ffffff"
            style="fill:#f5f3f3;fill-opacity:1"/>
    <path
            d=" M 67.28 0.00 L 67.52 0.00 C 68.50 0.64 69.47 1.29 70.44 1.94 C 64.06 12.98 57.76 24.07 51.36 35.09 C 57.70 46.15 64.02 57.23 70.43 68.25 C 69.34 68.91 68.25 69.57 67.16 70.22 C 63.16 63.26 59.15 56.31 55.15 49.35 C 48.24 49.39 41.32 49.29 34.41 49.40 C 34.33 48.35 34.26 47.30 34.18 46.25 C 40.49 46.43 46.81 46.31 53.12 46.35 C 51.58 43.12 50.04 39.82 47.80 37.00 C 39.29 36.55 30.73 36.92 22.20 36.85 C 22.22 35.66 22.23 34.48 22.24 33.30 C 30.83 33.33 39.42 33.34 48.01 33.29 C 49.82 30.15 51.84 27.09 53.09 23.65 C 46.81 23.66 40.52 23.56 34.24 23.75 C 34.23 23.13 34.22 21.88 34.22 21.26 C 41.11 21.42 48.00 21.33 54.89 21.32 C 59.06 14.24 62.99 7.01 67.28 0.00 Z"
            id="path3401"
            fill="#656754"/>
    <path
            d=" M 109.62 0.00 L 109.74 0.00 C 114.09 7.13 117.57 14.87 122.63 21.53 C 129.32 21.10 136.03 21.51 142.72 21.27 C 142.72 21.88 142.71 23.11 142.70 23.73 C 136.41 23.61 130.11 23.61 123.82 23.71 C 125.07 27.13 127.04 30.22 128.90 33.33 C 137.49 33.30 146.08 33.35 154.67 33.31 C 154.69 34.48 154.71 35.65 154.74 36.83 C 147.15 36.80 139.57 36.84 131.98 36.78 C 130.68 36.90 128.85 36.53 128.21 38.06 C 126.48 40.67 125.11 43.50 123.78 46.33 C 130.10 46.33 136.42 46.41 142.75 46.27 C 142.67 47.31 142.60 48.35 142.53 49.39 C 135.63 49.28 128.73 49.45 121.83 49.29 C 117.72 56.19 113.75 63.18 109.79 70.17 C 108.64 69.56 107.49 68.95 106.35 68.34 C 112.83 57.31 119.13 46.17 125.51 35.08 C 119.08 24.05 112.80 12.93 106.38 1.88 C 107.45 1.24 108.53 0.61 109.62 0.00 Z"
            id="path3403"
            fill="#656754"/>
    <path
            d=" M 77.46 22.53 C 82.90 22.37 89.23 21.51 93.57 25.59 C 99.49 30.47 99.25 40.62 93.07 45.19 C 88.75 48.88 82.79 47.77 77.58 47.93 C 77.46 39.46 77.67 30.99 77.46 22.53 Z"
            id="path3405"
            fill="#656754"/>
    <path
            d=" M 82.74 27.54 C 85.17 27.59 87.87 27.52 89.84 29.17 C 93.36 31.83 93.75 37.49 90.56 40.56 C 88.57 42.71 85.50 42.80 82.79 42.91 C 82.70 37.79 82.77 32.66 82.74 27.54 Z"
            id="path3407"
            fill="#ffffff"
            style="fill:#f5f3f3;fill-opacity:1"/>
    <path
            d=" M 66.72 85.79 C 68.69 83.51 71.90 83.59 74.65 83.49 C 74.66 84.50 74.69 86.53 74.70 87.55 C 72.36 87.37 69.29 87.34 68.56 90.19 C 69.40 92.10 72.07 90.75 73.64 91.22 C 73.61 92.21 73.56 94.18 73.53 95.16 C 71.94 95.18 70.36 95.23 68.77 95.29 C 68.84 98.87 68.85 102.46 68.80 106.04 C 67.81 106.02 65.85 105.98 64.87 105.96 C 64.79 102.44 64.83 98.93 64.85 95.41 C 62.52 95.59 62.57 93.15 63.20 91.57 C 65.73 90.66 64.75 87.31 66.72 85.79 Z"
            id="path3409"
            fill="#656754"/>
    <path
            d=" M 76.21 85.08 C 77.54 85.13 78.87 85.19 80.20 85.25 C 80.15 87.26 80.14 89.27 80.16 91.28 C 82.11 91.24 84.06 91.21 86.01 91.17 C 86.05 92.51 86.09 93.86 86.14 95.20 C 84.14 95.20 82.15 95.19 80.15 95.18 C 80.40 97.56 79.26 100.85 81.77 102.36 C 83.14 102.91 84.67 102.63 86.11 102.76 C 86.11 103.57 86.11 105.18 86.11 105.98 C 83.32 105.77 79.67 106.91 77.82 104.10 C 75.69 101.80 76.45 98.51 76.16 95.68 C 74.04 95.30 74.32 93.18 74.08 91.58 C 77.58 91.41 75.94 87.34 76.21 85.08 Z"
            id="path3411"
            fill="#656754"/>
    <path
            d=" M 115.21 85.13 C 116.53 85.12 117.86 85.11 119.19 85.11 C 119.19 87.29 119.19 89.47 119.17 91.66 C 122.87 89.60 127.84 92.04 128.75 96.12 C 129.12 99.40 128.89 102.72 128.90 106.02 C 127.93 106.00 125.99 105.97 125.01 105.96 C 124.84 102.96 125.04 99.94 124.82 96.94 C 124.21 94.23 119.95 94.30 119.33 96.98 C 119.01 99.97 119.24 102.98 119.18 105.99 C 117.86 105.99 116.53 105.99 115.21 106.01 C 115.23 99.05 115.23 92.09 115.21 85.13 Z"
            id="path3413"
            fill="#656754"/>
    <path
            d=" M 150.37 85.22 C 151.68 85.16 152.99 85.09 154.30 85.03 C 154.33 87.09 154.36 89.16 154.42 91.22 C 156.40 91.21 158.38 91.22 160.35 91.26 C 160.32 92.24 160.26 94.22 160.22 95.20 C 158.25 95.20 156.28 95.20 154.31 95.20 C 154.58 97.56 153.50 100.73 155.85 102.32 C 157.23 102.93 158.82 102.61 160.29 102.77 C 160.28 103.59 160.25 105.23 160.23 106.04 C 157.67 105.75 154.39 106.91 152.48 104.62 C 149.95 102.34 150.43 98.70 150.47 95.65 C 148.30 95.38 148.38 93.44 148.33 91.71 C 151.72 91.33 150.13 87.53 150.37 85.22 Z"
            id="path3415"
            fill="#656754"/>
    <path
            d=" M 15.37 85.95 C 19.55 86.05 24.32 85.24 27.81 88.13 C 32.72 91.69 33.16 99.63 28.69 103.73 C 25.27 107.53 19.78 105.46 15.34 106.01 C 15.35 99.33 15.32 92.64 15.37 85.95 Z"
            id="path3417"
            fill="#656754"/>
    <path
            d=" M 102.38 86.48 C 106.03 84.85 110.14 85.92 113.32 88.05 C 112.64 89.27 111.96 90.49 111.29 91.71 C 108.85 90.06 105.56 88.94 102.94 90.87 C 98.85 93.20 98.91 99.77 103.06 102.00 C 105.69 103.82 108.90 102.61 111.33 101.07 C 111.96 102.34 112.61 103.62 113.25 104.89 C 111.71 105.62 110.17 106.36 108.59 107.00 L 104.26 107.00 C 100.39 105.92 96.94 102.98 96.05 98.95 C 94.70 93.95 97.61 88.39 102.38 86.48 Z"
            id="path3419"
            fill="#656754"/>
    <path
            d=" M 19.55 89.93 C 21.57 90.22 23.87 90.12 25.49 91.58 C 28.23 93.81 28.38 98.33 25.80 100.74 C 24.21 102.51 21.68 102.46 19.51 102.61 C 19.53 98.38 19.48 94.16 19.55 89.93 Z"
            id="path3421"
            fill="#ffffff"
            style="fill:#f5f3f3;fill-opacity:1"/>
    <path
            d=" M 34.09 90.84 C 34.81 91.47 35.53 92.10 36.25 92.73 C 38.76 91.30 41.62 91.09 44.44 91.23 C 44.40 92.52 44.36 93.82 44.32 95.11 C 42.23 95.35 39.24 94.62 38.19 97.04 C 37.88 100.36 38.31 103.72 37.59 107.00 L 34.06 107.00 C 34.14 101.62 33.96 96.23 34.09 90.84 Z"
            id="path3423"
            fill="#656754"/>
    <path
            d=" M 48.21 92.22 C 51.31 89.60 55.51 90.69 58.51 92.84 C 59.23 92.14 59.96 91.44 60.68 90.75 C 60.84 96.16 60.93 101.57 60.64 106.98 C 60.02 106.47 58.77 105.45 58.15 104.93 C 56.71 105.67 55.27 106.39 53.77 107.00 L 52.21 107.00 C 44.98 106.58 42.61 96.27 48.21 92.22 Z"
            id="path3425"
            fill="#656754"/>
    <path
            d=" M 134.73 91.73 C 137.70 89.63 141.21 90.96 144.00 92.64 C 144.65 92.17 145.95 91.23 146.60 90.76 C 146.60 96.17 146.69 101.58 146.54 106.99 C 145.91 106.47 144.65 105.43 144.02 104.91 C 142.39 105.79 140.76 106.72 138.91 107.00 L 137.30 107.00 C 130.22 105.77 128.59 95.19 134.73 91.73 Z"
            id="path3427"
            fill="#656754"/>
    <path
            d=" M 50.35 95.59 C 52.30 93.62 55.86 94.86 56.59 97.39 C 57.69 100.11 55.04 103.65 52.07 102.89 C 48.87 102.26 48.14 97.66 50.35 95.59 Z"
            id="path3429"
            fill="#ffffff"
            style="fill:#f5f3f3;fill-opacity:1"/>
    <path
            d=" M 136.32 95.43 C 138.55 93.45 142.23 95.30 142.57 98.07 C 143.25 100.91 140.06 104.00 137.26 102.70 C 134.44 101.63 134.11 97.27 136.32 95.43 Z"
            id="path3431"
            fill="#ffffff"
            style="fill:#f5f3f3;fill-opacity:1"/>
</svg>
